<svg aria-label="Indy Pass" class="logo logo-dark" viewBox="0 0 155 52" fill="none" xmlns="http://www.w3.org/2000/svg">
    <path d="M151.2 48.5309C152.12 47.417 152.57 46.0901 152.57 44.4802C152.57 43.1637 152.306 42.0861 151.789 41.2785C151.264 40.4632 150.546 39.814 149.652 39.3492C148.721 38.8663 147.646 38.495 146.454 38.2457C145.234 37.9912 143.965 37.7835 142.684 37.6277C142.177 37.5835 141.611 37.5212 141.001 37.4433C140.378 37.3628 139.766 37.2538 139.181 37.1161C138.569 36.9707 138.052 36.7734 137.646 36.5241C137.145 36.2203 136.879 35.7607 136.879 35.1998C136.879 34.639 137.145 34.1768 137.651 33.8496C138.078 33.5718 138.639 33.3692 139.321 33.2472C139.97 33.1303 140.678 33.0732 141.43 33.0732C142.342 33.0732 143.293 33.1641 144.185 33.3329C145.085 33.5042 145.974 33.7483 146.829 34.0573C147.514 34.304 148.15 34.6052 148.721 34.9532L148.793 34.9973L151.476 31.3387L151.404 31.2815C150.853 30.8453 150.192 30.4246 149.434 30.0378C148.491 29.5522 147.359 29.1575 146.077 28.8667C144.79 28.5733 143.309 28.4252 141.676 28.4252C140.179 28.4252 138.752 28.5914 137.432 28.916C136.124 29.238 134.953 29.7236 133.95 30.3571C132.965 30.9777 132.193 31.7463 131.653 32.6474C131.118 33.5354 130.846 34.5533 130.846 35.675C130.846 36.6721 131.053 37.568 131.461 38.3366C131.87 39.1078 132.48 39.7725 133.273 40.31C134.095 40.8683 135.093 41.3461 136.245 41.7355C137.403 42.1276 138.742 42.4029 140.231 42.5535H140.246C140.913 42.6418 141.559 42.7223 142.161 42.7898C142.761 42.8573 143.324 42.9378 143.831 43.0287C144.351 43.1247 144.808 43.252 145.191 43.4078C145.609 43.5792 145.943 43.7999 146.175 44.0621C146.441 44.3607 146.573 44.7165 146.573 45.1189C146.573 45.7889 146.286 46.3212 145.744 46.6587C145.281 46.947 144.718 47.1443 144.069 47.243C143.461 47.3365 142.859 47.3832 142.28 47.3832C140.771 47.3832 139.091 47.1106 137.284 46.5757C135.635 46.0849 133.973 45.267 132.353 44.14L132.27 44.0829L129.662 48.3362L129.735 48.3881C130.608 49.0113 131.585 49.5799 132.632 50.0785C133.847 50.6575 135.23 51.1275 136.742 51.4755C138.254 51.8234 139.959 52.0026 141.81 52.0026C143.867 52.0026 145.741 51.7014 147.38 51.1042C148.99 50.5173 150.277 49.6527 151.202 48.5335L151.2 48.5309Z" fill="#011323" class="logo-letters"></path>
    <path d="M116.546 52C118.603 52 120.477 51.6988 122.115 51.1016C123.726 50.5147 125.013 49.6501 125.938 48.5309C126.858 47.417 127.308 46.0901 127.308 44.4802C127.308 43.1637 127.044 42.0861 126.525 41.2785C126 40.4632 125.282 39.814 124.387 39.3492C123.459 38.8663 122.382 38.495 121.19 38.2457C119.97 37.9912 118.701 37.7835 117.419 37.6277C116.913 37.5835 116.347 37.5212 115.737 37.4433C115.114 37.3628 114.501 37.2538 113.917 37.1161C113.305 36.9707 112.788 36.7734 112.382 36.5241C111.88 36.2203 111.614 35.7607 111.614 35.1998C111.614 34.639 111.88 34.1768 112.387 33.8496C112.813 33.5718 113.374 33.3692 114.057 33.2472C114.705 33.1303 115.414 33.0732 116.166 33.0732C117.078 33.0732 118.029 33.1641 118.921 33.3329C119.82 33.5042 120.712 33.7483 121.565 34.0573C122.25 34.304 122.886 34.6052 123.457 34.9532L123.532 34.9973L126.215 31.3387L126.142 31.2815C125.594 30.8453 124.93 30.4272 124.173 30.0378C123.229 29.5522 122.1 29.1575 120.815 28.8667C119.528 28.5733 118.047 28.4252 116.414 28.4252C114.917 28.4252 113.491 28.5914 112.17 28.916C110.862 29.238 109.691 29.7236 108.686 30.3571C107.701 30.9777 106.928 31.7463 106.388 32.6474C105.853 33.5354 105.582 34.5533 105.582 35.675C105.582 36.6721 105.789 37.568 106.197 38.3366C106.608 39.1078 107.218 39.7725 108.009 40.31C108.828 40.8683 109.828 41.3461 110.981 41.7355C112.139 42.1276 113.478 42.4029 114.966 42.5535H114.982C115.651 42.6444 116.295 42.7223 116.897 42.7898C117.499 42.8573 118.06 42.9378 118.567 43.0287C119.086 43.1247 119.544 43.252 119.926 43.4078C120.345 43.5792 120.676 43.7999 120.911 44.0621C121.177 44.3607 121.309 44.7165 121.309 45.1189C121.309 45.7889 121.022 46.3212 120.479 46.6587C120.017 46.947 119.453 47.1443 118.805 47.243C118.197 47.3365 117.595 47.3832 117.016 47.3832C115.507 47.3832 113.827 47.1106 112.02 46.5757C110.371 46.0849 108.712 45.267 107.089 44.14L107.006 44.0829L104.398 48.3336L104.47 48.3855C105.344 49.0087 106.318 49.5774 107.368 50.0759C108.583 50.655 109.965 51.1249 111.477 51.4729C112.989 51.8208 114.695 52 116.546 52Z" fill="#011323" class="logo-letters"></path>
    <path d="M102.86 51.665L92.3022 29.0303H87.1176L76.4975 51.665H82.0647L83.7809 47.9986H95.4322L95.5511 48.2505L97.1561 51.6624H102.863L102.86 51.665ZM85.5616 44.192L89.5962 35.5192L93.3464 43.5636L93.6385 44.192H85.5616Z" fill="#011323" class="logo-letters"></path>
    <path d="M77.5882 40.6631C78.3429 39.4531 78.7254 38.0561 78.7254 36.5137C78.7254 35.0622 78.3662 33.7639 77.658 32.6551L77.6477 32.6396C76.9369 31.5308 75.9599 30.6428 74.7478 30.0014C73.5252 29.3548 72.1322 29.0277 70.6073 29.0277H56.9348V51.6598H62.6674V44.5685H70.1059C71.7419 44.5685 73.2254 44.2179 74.5126 43.5298C75.7971 42.8417 76.8335 41.8784 77.5908 40.6631H77.5882ZM72.1322 38.3158C71.7703 38.7936 71.2973 39.1545 70.721 39.3856C70.1679 39.6063 69.5217 39.7206 68.7981 39.7206H62.564V33.8834H68.7981C69.5114 33.8834 70.1498 33.9768 70.6951 34.1586C71.2663 34.3507 71.7393 34.6442 72.1011 35.0337C72.4914 35.4543 72.6904 35.9866 72.6904 36.6176C72.6904 37.2486 72.5018 37.825 72.1322 38.3158Z" fill="#011323" class="logo-letters"></path>
    <path d="M148.398 0L143.053 8.83891L142.686 9.44392L142.309 8.8467L136.695 0H129.662L139.577 14.1075L139.657 14.2217V23.4917H145.674V14.0036L145.749 13.8945L154.999 0H148.398Z" fill="#011323" class="logo-letters"></path>
    <path d="M130.301 16.2886C130.921 14.8761 131.236 13.3492 131.236 11.7497C131.236 10.1502 130.921 8.65455 130.301 7.24458C129.686 5.83721 128.791 4.57785 127.644 3.49765L127.633 3.48727C126.478 2.40707 125.046 1.54759 123.379 0.932188C121.702 0.314192 119.782 0 117.67 0H106.729V23.4917H117.67C119.779 23.4917 121.694 23.1775 123.361 22.5595C125.026 21.9415 126.457 21.0872 127.621 20.0174C128.784 18.9476 129.686 17.6934 130.301 16.286V16.2886ZM124.418 14.6631C124.106 15.3019 123.689 15.8861 123.178 16.4029C122.555 17.0287 121.759 17.535 120.81 17.9063C119.864 18.2724 118.75 18.4594 117.497 18.4594H112.677V5.03226H117.497C118.753 5.03226 119.867 5.21922 120.808 5.58794C121.756 5.95925 122.55 6.463 123.173 7.08359C123.795 7.71457 124.274 8.43643 124.597 9.2336C124.92 10.0334 125.083 10.8799 125.083 11.7497C125.083 12.469 124.971 13.1753 124.749 13.8504L124.418 14.6657V14.6631Z" fill="#011323" class="logo-letters"></path>
    <path d="M102.824 23.4943V0H97.1251V15.0137L83.0107 0H77.2548V23.4943H82.9564V16.7015C82.9564 16.3068 82.9564 15.9329 82.9538 15.5772V8.35334L96.9958 23.4943H102.824Z" fill="#011323" class="logo-letters"></path>
    <path d="M73.3495 18.6022H68.1079V4.89204H73.3495V0H56.9219V4.89204H62.1634V18.6022H56.9219V23.4917H73.3495V18.6022Z" fill="#011323" class="logo-letters"></path>
    <path d="M0.160244 14.5671L4.06555 10.6462L16.8489 23.4891H23.1501V16.8703L10.3719 4.02998L14.2772 0.109081L23.1501 9.02589V0.0078125H0V23.4891H9.04087L0.160244 14.5671Z" fill="#D70300"></path>
    <path d="M14.2772 51.543L10.3719 47.6221L23.1501 34.7844V29.0329H16.8101L4.06555 41.8394L0.160244 37.9159L9.00468 29.0329H0V51.6625H23.1501V42.6236L14.2772 51.543Z" fill="#D70300"></path>
    <path d="M51.3557 37.9159L47.4529 41.8394L34.7058 29.0329H28.6708V34.8104L41.4205 47.6221L37.5178 51.543L28.6708 42.6548V51.6625H51.4177V29.0329H42.5138L51.3557 37.9159Z" fill="#D70300"></path>
    <path d="M28.6708 0.0078125V8.99733L37.5178 0.109081L41.4205 4.02998L28.6708 16.8417V23.4891H34.667L47.4529 10.6462L51.3557 14.5671L42.4776 23.4891H51.4177V0.0078125H28.6708Z" fill="#D70300"></path>
</svg>